<svg width="14" height="14" viewBox="0 0 14 14" fill="none" xmlns="http://www.w3.org/2000/svg">
<g id="icon-wrapper" clip-path="url(#clip0_37_1128)">
<path id="Union" d="M0.874512 2.18671C0.874512 1.83861 1.01279 1.50477 1.25893 1.25863C1.50508 1.01249 1.83892 0.874207 2.18701 0.874207H4.81201C5.16011 0.874207 5.49395 1.01249 5.74009 1.25863C5.98623 1.50477 6.12451 1.83861 6.12451 2.18671V4.81171C6.12451 5.1598 5.98623 5.49364 5.74009 5.73978C5.49395 5.98593 5.16011 6.12421 4.81201 6.12421H2.18701C1.83892 6.12421 1.50508 5.98593 1.25893 5.73978C1.01279 5.49364 0.874512 5.1598 0.874512 4.81171V2.18671ZM2.18701 1.74921C2.07098 1.74921 1.9597 1.7953 1.87765 1.87735C1.79561 1.95939 1.74951 2.07067 1.74951 2.18671V4.81171C1.74951 4.92774 1.79561 5.03902 1.87765 5.12107C1.9597 5.20311 2.07098 5.24921 2.18701 5.24921H4.81201C4.92804 5.24921 5.03932 5.20311 5.12137 5.12107C5.20342 5.03902 5.24951 4.92774 5.24951 4.81171V2.18671C5.24951 2.07067 5.20342 1.95939 5.12137 1.87735C5.03932 1.7953 4.92804 1.74921 4.81201 1.74921H2.18701ZM7.87451 2.18671C7.87451 1.83861 8.01279 1.50477 8.25893 1.25863C8.50508 1.01249 8.83892 0.874207 9.18701 0.874207H11.812C12.1601 0.874207 12.4939 1.01249 12.7401 1.25863C12.9862 1.50477 13.1245 1.83861 13.1245 2.18671V4.81171C13.1245 5.1598 12.9862 5.49364 12.7401 5.73978C12.4939 5.98593 12.1601 6.12421 11.812 6.12421H9.18701C8.83892 6.12421 8.50508 5.98593 8.25893 5.73978C8.01279 5.49364 7.87451 5.1598 7.87451 4.81171V2.18671ZM9.18701 1.74921C9.07098 1.74921 8.9597 1.7953 8.87765 1.87735C8.79561 1.95939 8.74951 2.07067 8.74951 2.18671V4.81171C8.74951 4.92774 8.79561 5.03902 8.87765 5.12107C8.9597 5.20311 9.07098 5.24921 9.18701 5.24921H11.812C11.928 5.24921 12.0393 5.20311 12.1214 5.12107C12.2034 5.03902 12.2495 4.92774 12.2495 4.81171V2.18671C12.2495 2.07067 12.2034 1.95939 12.1214 1.87735C12.0393 1.7953 11.928 1.74921 11.812 1.74921H9.18701ZM0.874512 9.18671C0.874512 8.83861 1.01279 8.50477 1.25893 8.25863C1.50508 8.01249 1.83892 7.87421 2.18701 7.87421H4.81201C5.16011 7.87421 5.49395 8.01249 5.74009 8.25863C5.98623 8.50477 6.12451 8.83861 6.12451 9.18671V11.8117C6.12451 12.1598 5.98623 12.4936 5.74009 12.7398C5.49395 12.9859 5.16011 13.1242 4.81201 13.1242H2.18701C1.83892 13.1242 1.50508 12.9859 1.25893 12.7398C1.01279 12.4936 0.874512 12.1598 0.874512 11.8117V9.18671ZM2.18701 8.74921C2.07098 8.74921 1.9597 8.7953 1.87765 8.87735C1.79561 8.95939 1.74951 9.07067 1.74951 9.18671V11.8117C1.74951 11.9277 1.79561 12.039 1.87765 12.1211C1.9597 12.2031 2.07098 12.2492 2.18701 12.2492H4.81201C4.92804 12.2492 5.03932 12.2031 5.12137 12.1211C5.20342 12.039 5.24951 11.9277 5.24951 11.8117V9.18671C5.24951 9.07067 5.20342 8.95939 5.12137 8.87735C5.03932 8.7953 4.92804 8.74921 4.81201 8.74921H2.18701ZM7.87451 9.18671C7.87451 8.83861 8.01279 8.50477 8.25893 8.25863C8.50508 8.01249 8.83892 7.87421 9.18701 7.87421H11.812C12.1601 7.87421 12.4939 8.01249 12.7401 8.25863C12.9862 8.50477 13.1245 8.83861 13.1245 9.18671V11.8117C13.1245 12.1598 12.9862 12.4936 12.7401 12.7398C12.4939 12.9859 12.1601 13.1242 11.812 13.1242H9.18701C8.83892 13.1242 8.50508 12.9859 8.25893 12.7398C8.01279 12.4936 7.87451 12.1598 7.87451 11.8117V9.18671ZM9.18701 8.74921C9.07098 8.74921 8.9597 8.7953 8.87765 8.87735C8.79561 8.95939 8.74951 9.07067 8.74951 9.18671V11.8117C8.74951 11.9277 8.79561 12.039 8.87765 12.1211C8.9597 12.2031 9.07098 12.2492 9.18701 12.2492H11.812C11.928 12.2492 12.0393 12.2031 12.1214 12.1211C12.2034 12.039 12.2495 11.9277 12.2495 11.8117V9.18671C12.2495 9.07067 12.2034 8.95939 12.1214 8.87735C12.0393 8.7953 11.928 8.74921 11.812 8.74921H9.18701Z" fill="black"/>
</g>
<defs>
<clipPath id="clip0_37_1128">
<rect width="14" height="14" fill="white"/>
</clipPath>
</defs>
</svg>
