<svg width="14" height="14" viewBox="0 0 14 14" fill="none" xmlns="http://www.w3.org/2000/svg">
<g id="icon-wrapper" clip-path="url(#clip0_10_17304)">
<path id="Union" d="M-0.000244141 2.18668C-0.000244141 2.07065 0.0458495 1.95937 0.127897 1.87732C0.209944 1.79527 0.321224 1.74918 0.437256 1.74918H1.74976C1.84735 1.7492 1.94212 1.78186 2.01902 1.84195C2.09592 1.90204 2.15051 1.98611 2.17413 2.0808L2.52851 3.49918H12.6873C12.7537 3.4992 12.8193 3.51435 12.879 3.5435C12.9387 3.57264 12.991 3.61501 13.0319 3.66739C13.0728 3.71976 13.1013 3.78077 13.1151 3.84577C13.1289 3.91078 13.1277 3.97807 13.1116 4.04255L11.7991 9.29255C11.7755 9.38724 11.7209 9.47132 11.644 9.53141C11.5671 9.5915 11.4723 9.62415 11.3748 9.62418H3.49976C3.40217 9.62415 3.30739 9.5915 3.23049 9.53141C3.1536 9.47132 3.099 9.38724 3.07538 9.29255L1.40851 2.62418H0.437256C0.321224 2.62418 0.209944 2.57808 0.127897 2.49604C0.0458495 2.41399 -0.000244141 2.30271 -0.000244141 2.18668ZM2.74726 4.37418L3.84101 8.74918H11.0335L12.1273 4.37418H2.74726ZM4.37476 11.3742C4.14269 11.3742 3.92013 11.4664 3.75604 11.6305C3.59194 11.7946 3.49976 12.0171 3.49976 12.2492C3.49976 12.4812 3.59194 12.7038 3.75604 12.8679C3.92013 13.032 4.14269 13.1242 4.37476 13.1242C4.60682 13.1242 4.82938 13.032 4.99347 12.8679C5.15757 12.7038 5.24976 12.4812 5.24976 12.2492C5.24976 12.0171 5.15757 11.7946 4.99347 11.6305C4.82938 11.4664 4.60682 11.3742 4.37476 11.3742ZM2.62476 12.2492C2.62476 11.785 2.80913 11.3399 3.13732 11.0117C3.46551 10.6836 3.91063 10.4992 4.37476 10.4992C4.83888 10.4992 5.284 10.6836 5.61219 11.0117C5.94038 11.3399 6.12476 11.785 6.12476 12.2492C6.12476 12.7133 5.94038 13.1584 5.61219 13.4866C5.284 13.8148 4.83888 13.9992 4.37476 13.9992C3.91063 13.9992 3.46551 13.8148 3.13732 13.4866C2.80913 13.1584 2.62476 12.7133 2.62476 12.2492ZM10.4998 11.3742C10.2677 11.3742 10.0451 11.4664 9.88104 11.6305C9.71694 11.7946 9.62476 12.0171 9.62476 12.2492C9.62476 12.4812 9.71694 12.7038 9.88104 12.8679C10.0451 13.032 10.2677 13.1242 10.4998 13.1242C10.7318 13.1242 10.9544 13.032 11.1185 12.8679C11.2826 12.7038 11.3748 12.4812 11.3748 12.2492C11.3748 12.0171 11.2826 11.7946 11.1185 11.6305C10.9544 11.4664 10.7318 11.3742 10.4998 11.3742ZM8.74976 12.2492C8.74976 11.785 8.93413 11.3399 9.26232 11.0117C9.59051 10.6836 10.0356 10.4992 10.4998 10.4992C10.9639 10.4992 11.409 10.6836 11.7372 11.0117C12.0654 11.3399 12.2498 11.785 12.2498 12.2492C12.2498 12.7133 12.0654 13.1584 11.7372 13.4866C11.409 13.8148 10.9639 13.9992 10.4998 13.9992C10.0356 13.9992 9.59051 13.8148 9.26232 13.4866C8.93413 13.1584 8.74976 12.7133 8.74976 12.2492Z" fill="#212529"/>
</g>
<defs>
<clipPath id="clip0_10_17304">
<rect width="14" height="14" fill="white"/>
</clipPath>
</defs>
</svg>
