<svg width="14" height="14" viewBox="0 0 14 14" fill="none" xmlns="http://www.w3.org/2000/svg">
<g id="icon-wrapper" clip-path="url(#clip0_10_17338)">
<g id="Union">
<path d="M6.99981 4.15898C6.62682 4.15898 6.25748 4.23244 5.91289 4.37518C5.56829 4.51791 5.25519 4.72713 4.99145 4.99087C4.7277 5.25461 4.51849 5.56772 4.37576 5.91231C4.23302 6.25691 4.15956 6.62624 4.15956 6.99923C4.15956 7.37221 4.23302 7.74155 4.37576 8.08614C4.51849 8.43074 4.7277 8.74385 4.99145 9.00759C5.25519 9.27133 5.56829 9.48054 5.91289 9.62328C6.25748 9.76601 6.62682 9.83948 6.99981 9.83948C7.75309 9.83948 8.47552 9.54024 9.00817 9.00759C9.54082 8.47494 9.84006 7.75251 9.84006 6.99923C9.84006 6.24595 9.54082 5.52352 9.00817 4.99087C8.47552 4.45822 7.75309 4.15898 6.99981 4.15898ZM5.03456 6.99923C5.03456 6.47801 5.24161 5.97814 5.61016 5.60958C5.97872 5.24103 6.47859 5.03398 6.99981 5.03398C7.52102 5.03398 8.02089 5.24103 8.38945 5.60958C8.758 5.97814 8.96506 6.47801 8.96506 6.99923C8.96506 7.52044 8.758 8.02031 8.38945 8.38887C8.02089 8.75742 7.52102 8.96448 6.99981 8.96448C6.47859 8.96448 5.97872 8.75742 5.61016 8.38887C5.24161 8.02031 5.03456 7.52044 5.03456 6.99923Z" fill="#212529"/>
<path d="M8.57131 1.17435C8.11018 -0.391898 5.88943 -0.391898 5.42831 1.17435L5.34606 1.45348C5.31385 1.56281 5.25759 1.66355 5.1814 1.74832C5.1052 1.83308 5.011 1.89972 4.90571 1.94335C4.80041 1.98698 4.68668 2.00649 4.57287 2.00045C4.45905 1.99442 4.34802 1.96299 4.24793 1.90848L3.99243 1.76848C2.55743 0.987977 0.988557 2.55773 1.76993 3.99185L1.90906 4.24735C1.96357 4.34744 1.995 4.45847 2.00103 4.57229C2.00707 4.6861 1.98756 4.79983 1.94393 4.90513C1.9003 5.01042 1.83366 5.10462 1.7489 5.18082C1.66413 5.25701 1.56339 5.31327 1.45406 5.34548L1.17493 5.42773C-0.391318 5.88885 -0.391318 8.1096 1.17493 8.57073L1.45406 8.65298C1.56339 8.68518 1.66413 8.74144 1.7489 8.81764C1.83366 8.89383 1.9003 8.98803 1.94393 9.09333C1.98756 9.19862 2.00707 9.31235 2.00103 9.42617C1.995 9.53998 1.96357 9.65101 1.90906 9.7511L1.76906 10.0066C0.988557 11.4416 2.55743 13.0114 3.99243 12.2291L4.24793 12.09C4.34802 12.0355 4.45905 12.004 4.57287 11.998C4.68668 11.992 4.80041 12.0115 4.90571 12.0551C5.011 12.0987 5.1052 12.1654 5.1814 12.2501C5.25759 12.3349 5.31385 12.4356 5.34606 12.545L5.42831 12.8241C5.88943 14.3904 8.11018 14.3904 8.57131 12.8241L8.65356 12.545C8.68576 12.4356 8.74202 12.3349 8.81822 12.2501C8.89441 12.1654 8.98861 12.0987 9.09391 12.0551C9.1992 12.0115 9.31293 11.992 9.42675 11.998C9.54056 12.004 9.65159 12.0355 9.75168 12.09L10.0072 12.23C11.4422 13.0114 13.0119 11.4407 12.2297 10.0066L12.0906 9.7511C12.036 9.65101 12.0046 9.53998 11.9986 9.42617C11.9925 9.31235 12.0121 9.19862 12.0557 9.09333C12.0993 8.98803 12.166 8.89383 12.2507 8.81764C12.3355 8.74144 12.4362 8.68518 12.5456 8.65298L12.8247 8.57073C14.3909 8.1096 14.3909 5.88885 12.8247 5.42773L12.5456 5.34548C12.4362 5.31327 12.3355 5.25701 12.2507 5.18082C12.166 5.10462 12.0993 5.01042 12.0557 4.90513C12.0121 4.79983 11.9925 4.6861 11.9986 4.57229C12.0046 4.45847 12.036 4.34744 12.0906 4.24735L12.2306 3.99185C13.0119 2.55685 11.4413 0.987977 10.0072 1.76935L9.75168 1.90848C9.65159 1.96299 9.54056 1.99442 9.42675 2.00045C9.31293 2.00649 9.1992 1.98698 9.09391 1.94335C8.98861 1.89972 8.89441 1.83308 8.81822 1.74832C8.74202 1.66355 8.68576 1.56281 8.65356 1.45348L8.57131 1.17435ZM6.26743 1.42198C6.48268 0.691352 7.51693 0.691352 7.73218 1.42198L7.81443 1.7011C7.88357 1.93568 8.00434 2.1518 8.16787 2.33364C8.3314 2.51547 8.53355 2.65841 8.7595 2.75196C8.98545 2.84551 9.22947 2.88731 9.47368 2.87429C9.71788 2.86127 9.95608 2.79377 10.1708 2.67673L10.4254 2.53673C11.0939 2.1736 11.8254 2.90423 11.4614 3.5736L11.3223 3.8291C11.2054 4.04385 11.1381 4.28203 11.1252 4.52618C11.1123 4.77032 11.1543 5.01426 11.2479 5.24011C11.3415 5.46596 11.4845 5.668 11.6663 5.83143C11.8482 5.99486 12.0643 6.11553 12.2988 6.1846L12.5771 6.26685C13.3077 6.4821 13.3077 7.51635 12.5771 7.7316L12.2979 7.81385C12.0634 7.88299 11.8472 8.00376 11.6654 8.16729C11.4836 8.33082 11.3406 8.53297 11.2471 8.75892C11.1535 8.98487 11.1117 9.22889 11.1247 9.4731C11.1378 9.7173 11.2053 9.9555 11.3223 10.1702L11.4623 10.4249C11.8254 11.0934 11.0948 11.8249 10.4254 11.4609L10.1708 11.3217C9.95602 11.2047 9.71777 11.1372 9.47352 11.1243C9.22926 11.1113 8.9852 11.1532 8.75924 11.2468C8.53328 11.3405 8.33114 11.4835 8.16765 11.6654C8.00416 11.8474 7.88347 12.0636 7.81443 12.2982L7.73218 12.5765C7.51693 13.3071 6.48268 13.3071 6.26743 12.5765L6.18518 12.2974C6.11601 12.0629 5.99526 11.8469 5.8318 11.6651C5.66833 11.4834 5.46627 11.3405 5.24044 11.247C5.0146 11.1534 4.77069 11.1116 4.52659 11.1245C4.28249 11.1375 4.04437 11.2048 3.82968 11.3217L3.57418 11.4617C2.90568 11.8249 2.17418 11.0942 2.53818 10.4249L2.67731 10.1702C2.79451 9.95547 2.86215 9.71719 2.87525 9.47288C2.88836 9.22857 2.8466 8.98443 2.75303 8.75836C2.65947 8.5323 2.51648 8.33005 2.33455 8.16646C2.15262 8.00287 1.93638 7.88209 1.70168 7.81298L1.42256 7.73073C0.691932 7.51548 0.691932 6.48123 1.42256 6.26598L1.70168 6.18373C1.93601 6.11452 2.1519 5.9938 2.33356 5.83039C2.51521 5.66698 2.65803 5.46503 2.75155 5.2393C2.84508 5.01357 2.88695 4.76979 2.87411 4.52579C2.86126 4.2818 2.79402 4.04376 2.67731 3.8291L2.53731 3.5736C2.17418 2.9051 2.90481 2.1736 3.57418 2.5376L3.82968 2.67673C4.04437 2.79361 4.28249 2.86098 4.52659 2.87391C4.77069 2.88684 5.0146 2.84501 5.24044 2.75147C5.46627 2.65793 5.66833 2.51505 5.8318 2.33331C5.99526 2.15156 6.11601 1.93555 6.18518 1.7011L6.26743 1.42198Z" fill="#212529"/>
</g>
</g>
<defs>
<clipPath id="clip0_10_17338">
<rect width="14" height="14" fill="white"/>
</clipPath>
</defs>
</svg>
