<svg width="14" height="14" viewBox="0 0 14 14" fill="none" xmlns="http://www.w3.org/2000/svg">
<g id="icon-wrapper" clip-path="url(#clip0_10_17287)">
<path id="Union" d="M7.16251 0.973049C7.05804 0.931185 6.94147 0.931185 6.83701 0.973049L1.61501 3.06167L3.71851 3.90255L9.10326 1.74917L7.16251 0.973049ZM10.281 2.2208L4.89626 4.37417L6.99976 5.21505L12.3845 3.06167L10.281 2.2208V2.2208ZM13.1248 3.7083L7.43726 5.9833V12.915L13.1248 10.64V3.70917V3.7083ZM6.56226 12.9159V5.98242L0.874756 3.7083V10.6409L6.56226 12.9159V12.9159ZM6.51238 0.160174C6.82525 0.0350485 7.17426 0.0350485 7.48713 0.160174L13.725 2.65567C13.8061 2.68818 13.8756 2.74422 13.9246 2.81658C13.9736 2.88894 13.9997 2.9743 13.9998 3.06167V10.6409C13.9996 10.8158 13.9472 10.9866 13.8491 11.1313C13.751 11.276 13.6117 11.3881 13.4494 11.4529L7.16251 13.9677C7.05804 14.0095 6.94147 14.0095 6.83701 13.9677L0.551006 11.4529C0.388476 11.3882 0.24908 11.2762 0.150818 11.1315C0.0525549 10.9867 -6.36025e-05 10.8159 -0.000244141 10.6409V3.06167C-0.000223806 2.9743 0.0259566 2.88894 0.0749245 2.81658C0.123892 2.74422 0.193404 2.68818 0.274506 2.65567L6.51238 0.160174Z" fill="#212529"/>
</g>
<defs>
<clipPath id="clip0_10_17287">
<rect width="14" height="14" fill="white"/>
</clipPath>
</defs>
</svg>
