<svg width="14" height="14" viewBox="0 0 14 14" fill="none" xmlns="http://www.w3.org/2000/svg">
<g id="icon-wrapper" clip-path="url(#clip0_10_17077)">
<path id="Union" d="M-0.000244139 3.06168C-0.000244139 2.71358 0.138037 2.37974 0.384178 2.1336C0.63032 1.88746 0.964159 1.74918 1.31226 1.74918H9.18726C9.53535 1.74918 9.86919 1.88746 10.1153 2.1336C10.3615 2.37974 10.4998 2.71358 10.4998 3.06168V4.37418H11.3923C11.5889 4.37435 11.783 4.41871 11.9602 4.50398C12.1374 4.58925 12.2932 4.71324 12.416 4.8668L13.7119 6.48555C13.8983 6.71846 13.9999 7.00795 13.9998 7.3063V9.18668C13.9998 9.53477 13.8615 9.86861 13.6153 10.1148C13.3692 10.3609 13.0354 10.4992 12.6873 10.4992H12.2498C12.2498 10.9633 12.0654 11.4084 11.7372 11.7366C11.409 12.0648 10.9639 12.2492 10.4998 12.2492C10.0356 12.2492 9.59051 12.0648 9.26232 11.7366C8.93413 11.4084 8.74976 10.9633 8.74976 10.4992H4.37476C4.37526 10.7324 4.32912 10.9634 4.23906 11.1786C4.149 11.3938 4.01683 11.5888 3.85032 11.7522C3.68381 11.9155 3.48633 12.0439 3.26947 12.1299C3.05262 12.2158 2.82077 12.2575 2.58756 12.2526C2.35435 12.2476 2.12449 12.1961 1.91148 12.101C1.69848 12.0059 1.50663 11.8692 1.34721 11.6989C1.1878 11.5286 1.06403 11.3282 0.983198 11.1094C0.902364 10.8906 0.866089 10.6578 0.876506 10.4248C0.620173 10.3346 0.398163 10.167 0.24112 9.94525C0.0840758 9.72347 -0.000258799 9.45842 -0.000244139 9.18668V3.06168ZM1.13201 9.58568C1.29021 9.32667 1.51308 9.11329 1.77872 8.96649C2.04436 8.8197 2.34362 8.74455 2.64709 8.74844C2.95057 8.75232 3.24781 8.8351 3.5096 8.98864C3.7714 9.14219 3.98874 9.36121 4.14026 9.62418H8.98426C9.13817 9.35842 9.359 9.13759 9.62476 8.98368V3.06168C9.62476 2.94564 9.57866 2.83436 9.49662 2.75232C9.41457 2.67027 9.30329 2.62418 9.18726 2.62418H1.31226C1.19622 2.62418 1.08494 2.67027 1.0029 2.75232C0.920849 2.83436 0.874756 2.94564 0.874756 3.06168V9.18668C0.874687 9.27089 0.898923 9.35333 0.944555 9.4241C0.990187 9.49488 1.05527 9.55098 1.13201 9.58568ZM10.4998 8.74918C10.8069 8.74918 11.1087 8.83005 11.3747 8.98364C11.6408 9.13724 11.8617 9.35815 12.0153 9.62418H12.6873C12.8033 9.62418 12.9146 9.57808 12.9966 9.49604C13.0787 9.41399 13.1248 9.30271 13.1248 9.18668V7.30543C13.1246 7.20614 13.0906 7.10987 13.0285 7.03243L11.7335 5.41368C11.6926 5.36244 11.6407 5.32105 11.5816 5.29258C11.5225 5.2641 11.4578 5.24927 11.3923 5.24918H10.4998V8.74918ZM2.62476 9.62418C2.39269 9.62418 2.17013 9.71636 2.00604 9.88046C1.84194 10.0446 1.74976 10.2671 1.74976 10.4992C1.74976 10.7312 1.84194 10.9538 2.00604 11.1179C2.17013 11.282 2.39269 11.3742 2.62476 11.3742C2.85682 11.3742 3.07938 11.282 3.24347 11.1179C3.40757 10.9538 3.49976 10.7312 3.49976 10.4992C3.49976 10.2671 3.40757 10.0446 3.24347 9.88046C3.07938 9.71636 2.85682 9.62418 2.62476 9.62418ZM10.4998 9.62418C10.2677 9.62418 10.0451 9.71636 9.88104 9.88046C9.71694 10.0446 9.62476 10.2671 9.62476 10.4992C9.62476 10.7312 9.71694 10.9538 9.88104 11.1179C10.0451 11.282 10.2677 11.3742 10.4998 11.3742C10.7318 11.3742 10.9544 11.282 11.1185 11.1179C11.2826 10.9538 11.3748 10.7312 11.3748 10.4992C11.3748 10.2671 11.2826 10.0446 11.1185 9.88046C10.9544 9.71636 10.7318 9.62418 10.4998 9.62418Z" fill="#212529"/>
</g>
<defs>
<clipPath id="clip0_10_17077">
<rect width="14" height="14" fill="white"/>
</clipPath>
</defs>
</svg>
