<svg width="14" height="14" viewBox="0 0 14 14" fill="none" xmlns="http://www.w3.org/2000/svg">
<g id="icon-wrapper" clip-path="url(#clip0_10_17093)">
<path id="Union" fill-rule="evenodd" clip-rule="evenodd" d="M-0.000244141 -0.000823975H0.874756V13.1242H13.9998V13.9992H-0.000244141V-0.000823975ZM8.74976 3.06168C8.74976 2.94564 8.79585 2.83436 8.8779 2.75232C8.95994 2.67027 9.07122 2.62418 9.18726 2.62418H12.6873C12.8033 2.62418 12.9146 2.67027 12.9966 2.75232C13.0787 2.83436 13.1248 2.94564 13.1248 3.06168V6.56168C13.1248 6.67771 13.0787 6.78899 12.9966 6.87104C12.9146 6.95308 12.8033 6.99918 12.6873 6.99918C12.5712 6.99918 12.4599 6.95308 12.3779 6.87104C12.2958 6.78899 12.2498 6.67771 12.2498 6.56168V4.28668L9.08838 8.15155C9.04968 8.19879 9.00152 8.2374 8.947 8.2649C8.89247 8.29241 8.8328 8.30819 8.77181 8.31124C8.71082 8.31429 8.64986 8.30454 8.59287 8.28261C8.53587 8.26068 8.4841 8.22707 8.44088 8.18393L6.17726 5.9203L2.97826 10.3189C2.90828 10.4079 2.80653 10.4663 2.69439 10.4818C2.58226 10.4974 2.46847 10.4688 2.37693 10.4022C2.2854 10.3356 2.22325 10.2361 2.20354 10.1246C2.18383 10.0132 2.20811 9.89838 2.27126 9.80443L5.77126 4.99193C5.80841 4.94075 5.85621 4.89824 5.91137 4.86732C5.96653 4.83639 6.02774 4.8178 6.09078 4.81281C6.15382 4.80782 6.21719 4.81655 6.27653 4.83841C6.33587 4.86027 6.38977 4.89473 6.43451 4.93943L8.71738 7.22318L11.7641 3.49918H9.18726C9.07122 3.49918 8.95994 3.45308 8.8779 3.37104C8.79585 3.28899 8.74976 3.17771 8.74976 3.06168Z" fill="#212529"/>
</g>
<defs>
<clipPath id="clip0_10_17093">
<rect width="14" height="14" fill="white"/>
</clipPath>
</defs>
</svg>
