<svg width="14" height="14" viewBox="0 0 14 14" fill="none" xmlns="http://www.w3.org/2000/svg">
<g id="icon-wrapper" clip-path="url(#clip0_10_17321)">
<g id="Union">
<path d="M6.99976 13.1242C5.3753 13.1242 3.81739 12.4789 2.66873 11.3302C1.52007 10.1815 0.874756 8.62363 0.874756 6.99918C0.874756 5.37473 1.52007 3.81681 2.66873 2.66815C3.81739 1.51949 5.3753 0.874176 6.99976 0.874176C8.62421 0.874176 10.1821 1.51949 11.3308 2.66815C12.4794 3.81681 13.1248 5.37473 13.1248 6.99918C13.1248 8.62363 12.4794 10.1815 11.3308 11.3302C10.1821 12.4789 8.62421 13.1242 6.99976 13.1242ZM6.99976 13.9992C8.85627 13.9992 10.6367 13.2617 11.9495 11.9489C13.2623 10.6362 13.9998 8.85569 13.9998 6.99918C13.9998 5.14266 13.2623 3.36218 11.9495 2.04943C10.6367 0.736674 8.85627 -0.000823975 6.99976 -0.000823975C5.14324 -0.000823975 3.36276 0.736674 2.05001 2.04943C0.737254 3.36218 -0.000244141 5.14266 -0.000244141 6.99918C-0.000244141 8.85569 0.737254 10.6362 2.05001 11.9489C3.36276 13.2617 5.14324 13.9992 6.99976 13.9992Z" fill="#212529"/>
<path d="M7.81351 5.76368L5.80976 6.0148L5.73801 6.3473L6.13176 6.41993C6.38901 6.48118 6.43976 6.57393 6.38376 6.8303L5.73801 9.8648C5.56826 10.6497 5.82988 11.0189 6.44501 11.0189C6.92188 11.0189 7.47576 10.7984 7.72688 10.4957L7.80388 10.1317C7.62888 10.2857 7.37338 10.3469 7.20363 10.3469C6.96301 10.3469 6.87551 10.1781 6.93763 9.88055L7.81351 5.76368ZM7.87476 3.93668C7.87476 4.16874 7.78257 4.3913 7.61847 4.55539C7.45438 4.71949 7.23182 4.81168 6.99976 4.81168C6.76769 4.81168 6.54513 4.71949 6.38104 4.55539C6.21694 4.3913 6.12476 4.16874 6.12476 3.93668C6.12476 3.70461 6.21694 3.48205 6.38104 3.31796C6.54513 3.15386 6.76769 3.06168 6.99976 3.06168C7.23182 3.06168 7.45438 3.15386 7.61847 3.31796C7.78257 3.48205 7.87476 3.70461 7.87476 3.93668Z" fill="#212529"/>
</g>
</g>
<defs>
<clipPath id="clip0_10_17321">
<rect width="14" height="14" fill="white"/>
</clipPath>
</defs>
</svg>
